<?xml version="1.0" encoding="UTF-8" standalone="no"?>
<!-- Created with Inkscape (http://www.inkscape.org/) -->
<svg
   xmlns:svg="http://www.w3.org/2000/svg"
   xmlns="http://www.w3.org/2000/svg"
   version="1.0"
   width="998"
   height="576"
   id="svg2439">
  <defs
     id="defs2442" />
  <g
     transform="translate(0,-7.3382353)"
     id="g2450">
    <path
       d="M 147,565.74619 C 142.1044,564.11093 134.71399,556.40697 133.22232,551.38398 C 131.03674,544.02429 131.64716,535.05445 134.75,528.9355 C 138.80265,520.9435 144.03966,517.63786 153.3971,517.16533 C 165.19351,516.56964 172.77989,521.45609 176.52105,532.05966 C 179.72281,541.13443 177.56468,553.54246 171.68793,559.84732 C 166.39429,565.52659 154.70452,568.31971 147,565.74619 z M 164.10024,557.92862 C 168.81277,554.57301 170.45774,550.46603 170.48015,542 C 170.50303,533.35557 168.554,528.96386 163.04805,525.2534 C 156.49408,520.83668 146.0004,523.02721 141.8956,529.66893 C 137.26208,537.16611 138.57097,551.42997 144.39447,556.90086 C 149.19626,561.4119 158.52512,561.89846 164.10024,557.92862 z M 835,562.74619 C 830.1044,561.11093 822.71399,553.40697 821.22232,548.38398 C 819.03674,541.02429 819.64716,532.05445 822.75,525.9355 C 826.80265,517.9435 832.03966,514.63786 841.3971,514.16533 C 853.19351,513.56964 860.77989,518.45609 864.52105,529.05966 C 867.72281,538.13443 865.56468,550.54246 859.68793,556.84732 C 854.39429,562.52659 842.70452,565.31971 835,562.74619 z M 852.10024,554.92862 C 856.81277,551.57301 858.45774,547.46603 858.48015,539 C 858.50303,530.35557 856.554,525.96386 851.04805,522.2534 C 844.49408,517.83668 834.0004,520.02721 829.8956,526.66893 C 825.26208,534.16611 826.57097,548.42997 832.39447,553.90086 C 837.19626,558.4119 846.52512,558.89846 852.10024,554.92862 z M 142,482 L 142,459 L 145,459 L 148,459 L 148,482 L 148,505 L 145,505 L 142,505 L 142,482 z M 164,482 L 164,458.86716 L 166.75,459.18358 L 169.5,459.5 L 169.5,482 L 169.5,504.5 L 166.75,504.81642 L 164,505.13284 L 164,482 z M 830.66667,501.33333 C 830.3,500.96667 830,490.61667 830,478.33333 L 830,456 L 833,456 L 836,456 L 836,479 L 836,502 L 833.66667,502 C 832.38333,502 831.03333,501.7 830.66667,501.33333 z M 852,479.06642 L 852,456 L 855.01877,456 L 858.03755,456 L 857.76877,478.75 L 857.5,501.5 L 854.75,501.81642 L 852,502.13284 L 852,479.06642 z M 136,422 L 136,398 L 139.84657,398 L 143.69315,398 L 155.84337,416.25 L 167.99358,434.5 L 167.99679,416.25 L 168,398 L 171.5,398 L 175,398 L 175,422 L 175,446 L 171.25,445.97742 C 167.5015,445.95484 167.49519,445.94756 155.5,427.82069 L 143.5,409.68655 L 143.22744,427.84327 L 142.95488,446 L 139.47744,446 L 136,446 L 136,422 z M 824,419 L 824,395 L 827.84657,395 L 831.69315,395 L 843.84337,413.25 L 855.99358,431.5 L 855.99679,413.25 L 856,395 L 859.5,395 L 863,395 L 863,419 L 863,443 L 859.25,442.97742 C 855.5015,442.95484 855.49519,442.94756 843.5,424.82069 L 831.5,406.68655 L 831.22744,424.84327 L 830.95488,443 L 827.47744,443 L 824,443 L 824,419 z M 192,409 L 192,404 L 186.93045,404 C 182.24512,404 181.88512,403.82947 182.18045,401.75 C 182.45253,399.83422 183.19776,399.45505 187.19736,399.19736 L 191.89472,398.89472 L 192.19736,394.19736 C 192.45505,390.19776 192.83422,389.45253 194.75,389.18045 C 196.82947,388.88512 197,389.24512 197,393.93045 L 197,399 L 202,399 C 206.66667,399 207,399.16667 207,401.5 C 207,403.83333 206.66667,404 202,404 L 197,404 L 197,409 C 197,413.66667 196.83333,414 194.5,414 C 192.16667,414 192,413.66667 192,409 z M 803,406 L 803,401 L 797.93045,401 C 793.24512,401 792.88512,400.82947 793.18045,398.75 C 793.45253,396.83422 794.19776,396.45505 798.19736,396.19736 L 802.89472,395.89472 L 803.19736,391.19736 C 803.45505,387.19776 803.83422,386.45253 805.75,386.18045 C 807.82947,385.88512 808,386.24512 808,390.93045 L 808,396 L 813,396 C 817.66667,396 818,396.16667 818,398.5 C 818,400.83333 817.66667,401 813,401 L 808,401 L 808,406 C 808,410.66667 807.83333,411 805.5,411 C 803.16667,411 803,410.66667 803,406 z M 100.84699,391.83987 C 83.891548,382.07031 83.236001,381.57614 84.257503,379.33419 C 84.842443,378.05038 85.640339,377 86.030605,377 C 87.406459,377 120.34441,396.53324 120.6834,397.55019 C 120.87236,398.11707 120.45839,399.35273 119.76348,400.29612 C 118.61342,401.85739 116.91539,401.09832 100.84699,391.83987 z M 357.72932,380.41595 C 323.6955,360.79794 322.07242,359.73025 323.14525,357.66595 C 323.76436,356.47468 324.39869,355.34877 324.55486,355.16393 C 324.71103,354.97909 339.61257,363.3481 357.6694,373.76173 C 375.72623,384.17536 391.47195,393.20822 392.65988,393.83475 C 394.57563,394.84515 400.4532,391.71907 444.65988,366.17775 L 494.5,337.3816 L 495,297.9408 L 495.5,258.5 L 498.25,258.18358 L 501,257.86716 L 501,297.32565 L 501,336.78415 L 551.54565,365.93764 L 602.09131,395.09113 L 636.0964,375.42965 C 654.79921,364.61583 670.24271,355.93283 670.4153,356.13408 C 670.58788,356.33534 671.22452,357.4539 671.83003,358.61978 C 672.86999,360.62212 671.00024,361.85469 638.07783,380.86978 C 618.90859,391.9414 602.70664,401 602.07349,401 C 601.22743,401 511.20986,349.62674 499.92302,342.70246 C 498.71004,341.95832 486.50454,348.57476 447.04392,371.36751 C 418.82776,387.66538 395.22368,401 394.59042,401 C 393.95717,401 377.36967,391.73718 357.72932,380.41595 z M 878.60699,397.41821 C 878.27314,396.54823 878,395.46482 878,395.01064 C 878,394.17468 910.49471,375 911.91139,375 C 912.33356,375 913.14353,376.01959 913.71132,377.26575 C 914.69078,379.41543 913.88075,380.03019 897.89971,389.26575 C 888.63554,394.61959 880.64136,399 880.13487,399 C 879.62838,399 878.94083,398.2882 878.60699,397.41821 z M 212.95255,385.91134 C 212.05816,384.24016 212.10228,383.48958 213.15238,382.5116 C 213.89357,381.82131 223.6357,375.74453 234.80155,369.00763 C 254.019,357.41281 255.17874,356.85862 256.51974,358.62936 C 257.2989,359.65821 257.9507,360.78003 257.9682,361.12229 C 257.99158,361.57978 219.74658,385.11943 214.80017,387.69204 C 214.41527,387.89223 213.58384,387.09091 212.95255,385.91134 z M 41.491423,385.13502 C 30.906117,380.32622 25.569116,366.39508 29.415702,353.61384 C 32.630861,342.93068 40.006095,337.57825 51.57842,337.5297 C 57.744361,337.50383 59.289306,337.89102 63.563101,340.53331 C 75.802976,348.10064 78.460342,368.57248 68.652719,379.74275 C 64.367204,384.62368 58.820955,386.95608 51.5,386.95608 C 47.830682,386.95608 43.94288,386.24869 41.491423,385.13502 z M 60.000506,378.75 C 65.51038,374.98902 67.158595,370.76805 66.805603,361.32258 C 66.477745,352.54967 65.196541,349.7291 59.662716,345.5975 C 55.820257,342.72869 47.632637,342.82786 42.821217,345.80148 C 37.792349,348.90949 35.667783,353.90482 35.667168,362.62224 C 35.666588,370.85411 37.60412,375.1427 42.951949,378.7466 C 47.561208,381.85278 55.452597,381.85435 60.000506,378.75 z M 760.25,372.7506 C 747.4625,365.47732 737,359.01311 737,358.38567 C 737,357.75824 737.6685,356.69008 738.48555,356.01199 C 739.71322,354.99312 744.03842,357.07915 763.40079,368.02852 C 786.1168,380.87436 786.79771,381.34987 785.75472,383.63898 C 785.16306,384.93754 784.4137,385.99432 784.08948,385.98737 C 783.76527,385.98042 773.0375,380.02387 760.25,372.7506 z M 936.5,381.63197 C 930.5148,378.82072 928.78174,377.00253 925.8544,370.46346 C 921.17188,360.00366 924.20945,344.6665 932.12919,338.78114 C 941.19683,332.04275 953.37169,332.34649 961.75254,339.52018 C 972.3451,348.58702 972.63979,368.42094 962.32741,378.21115 C 956.06774,384.15387 944.99231,385.6208 936.5,381.63197 z M 955.71835,375.20055 C 960.21949,371.99546 962.44029,366.64311 962.44029,359 C 962.44029,351.39117 960.22165,346.00608 955.78538,342.84717 C 948.40633,337.59283 936.50307,340.47901 932.90855,348.39411 C 930.62424,353.42414 930.34557,364.84664 932.41072,368.79966 C 933.95233,371.75052 938.62272,376.39979 941,377.35009 C 944.14602,378.60769 952.68477,377.36065 955.71835,375.20055 z M 279.20372,362.87181 C 271.46427,359.04087 267,350.93391 267,340.71026 C 267,332.37412 269.21567,326.17138 273.78724,321.70945 C 280.74248,314.92102 290.68732,313.24412 299.54087,317.36687 C 309.20004,321.86477 313.5737,330.15884 312.78305,342.47894 C 312.15832,352.21345 308.69466,358.25719 301.46565,362.22664 C 294.97524,365.79052 285.64643,366.06088 279.20372,362.87181 z M 300.40814,355.08904 C 306.55488,349.13138 307.76436,336.20889 302.91031,328.35488 C 298.11884,320.60213 287.04974,319.03748 279.72248,325.07723 C 275.60302,328.47283 274.01405,332.81088 274.00558,340.6849 C 273.99881,346.9801 275.26735,350.58649 278.81362,354.3539 C 282.53239,358.30457 284.6161,359.02809 291.26112,358.67601 C 296.20619,358.41401 297.50185,357.90592 300.40814,355.08904 z M 695.5,363.61115 C 686.51012,359.68388 681.63266,351.45319 681.65981,340.25588 C 681.68384,330.34459 685.37875,322.89702 692.4369,318.53331 C 696.71069,315.89102 698.25564,315.50383 704.42158,315.5297 C 709.78725,315.55221 712.53161,316.10321 715.7634,317.80686 C 731.75826,326.23859 731.91844,353.92087 716.02056,362.25 C 710.09682,365.35354 700.88689,365.96444 695.5,363.61115 z M 713.04805,356.7466 C 718.41135,353.13228 720.44566,348.66663 720.43679,340.52712 C 720.43073,334.96804 719.92803,332.61215 718.03048,329.25009 C 711.74403,318.11184 695.25783,318.95866 690.36403,330.67119 C 688.46029,335.22747 688.61601,346.38855 690.64292,350.65994 C 694.40021,358.57783 705.7538,361.6622 713.04805,356.7466 z M 10,346.45619 C 10,343.93801 10.073038,343.91534 17.25,344.20619 C 23.902769,344.4758 24.526324,344.68535 24.819551,346.75 C 25.126791,348.91331 24.847471,349 17.569551,349 C 10.127266,349 10,348.95723 10,346.45619 z M 973,343.5 C 973,341.05556 973.16667,341 980.5,341 C 987.83333,341 988,341.05556 988,343.5 C 988,345.94444 987.83333,346 980.5,346 C 973.16667,346 973,345.94444 973,343.5 z M 489.70728,244.43637 C 471.00242,238.49714 468.23331,209.16947 485.37666,198.57055 C 489.48293,196.03184 491.18956,195.59205 496.85022,195.6139 C 511.2885,195.66964 520,205.03453 520,220.5 C 520,227.95219 518.43823,233.01267 514.76184,237.47276 C 508.98535,244.48064 498.77988,247.31713 489.70728,244.43637 z M 505.5,237.10499 C 515.28986,231.71813 515.49283,209.929 505.80814,204.0244 C 503.57589,202.66343 500.74965,202.00626 497.11803,202.00374 C 487.56344,201.9971 482.48209,207.05448 481.38228,217.66525 C 480.58617,225.34594 482.17318,230.80628 486.38932,234.89272 C 491.66834,240.00935 498.73505,240.8274 505.5,237.10499 z M 699.5,245.06493 C 691.93551,243.22337 685.29757,237.33524 682.89519,230.33577 C 681.06564,225.00528 681.30556,215.10689 683.39705,209.6304 C 688.62304,195.94635 706.53298,191.0839 718.84883,200.00545 C 729.81097,207.94639 730.98235,229.01765 721.01572,238.98428 C 715.42654,244.57346 707.12189,246.92047 699.5,245.06493 z M 713,237.05656 C 718.83447,232.9947 721.89445,224.43426 720.42053,216.29728 C 719.47015,211.05051 717.61266,207.6933 713.95919,204.61912 C 711.38759,202.45526 709.84266,202 705.07116,202 C 694.27942,202 689.00311,208.0749 689.00311,220.5 C 689.00311,228.34997 690.87007,233.16381 695.1228,236.2792 C 700.31223,240.08079 708.16549,240.42227 713,237.05656 z M 731.36163,206.5 C 730.01867,203.00032 731.70966,202 738.96862,202 L 746,202 L 746,205 L 746,208 L 738.96862,208 C 733.64099,208 731.79776,207.63654 731.36163,206.5 z M 529.23077,200.60713 C 528.12771,198.18618 528.45653,197.93458 545.74505,187.97137 C 562.17239,178.50446 563.4756,177.92993 564.70588,179.61244 C 565.43247,180.60612 565.89444,181.81668 565.73247,182.30258 C 565.48015,183.05954 534.4522,201.4695 531.42812,202.65653 C 530.83859,202.88794 529.84978,201.96571 529.23077,200.60713 z M 654.5,192.44155 C 645.7,187.27197 638.09797,182.89879 637.6066,182.72336 C 636.47776,182.32034 638.72462,178 640.06306,178 C 640.60905,178 648.63554,182.38041 657.89971,187.73425 C 673.88075,196.96981 674.69078,197.58457 673.71132,199.73425 C 673.14353,200.98041 672.1887,201.96417 671.58948,201.92039 C 670.99027,201.8766 663.3,197.61112 654.5,192.44155 z M 583,160.56336 L 583,136 L 586.35245,136 C 589.58802,136 590.11973,136.6244 601.60245,153.90833 L 613.5,171.81666 L 614,154.15833 L 614.5,136.5 L 617.75,136.18664 L 621,135.87328 L 621,160.43664 L 621,185 L 617.64755,185 C 614.41198,185 613.88027,184.3756 602.39755,167.09167 L 590.5,149.18334 L 590,166.84167 L 589.5,184.5 L 586.25,184.81336 L 583,185.12672 L 583,160.56336 z M 638.66667,152.33333 C 638.3,151.96667 638,149.74132 638,147.38812 L 638,143.10958 L 633.25,142.80479 C 629.19651,142.54469 628.45314,142.17008 628.18045,140.25 C 627.88512,138.17053 628.24512,138 632.93045,138 L 638,138 L 638,133 C 638,128.33333 638.16667,128 640.5,128 C 642.83333,128 643,128.33333 643,133 L 643,138 L 648,138 C 652.66667,138 653,138.16667 653,140.5 C 653,142.83333 652.66667,143 648,143 L 643,143 L 643,148 C 643,152.18182 642.7,153 641.16667,153 C 640.15833,153 639.03333,152.7 638.66667,152.33333 z M 588,97.5 L 588,79 L 591,79 L 594,79 L 594,97.5 L 594,116 L 591,116 L 588,116 L 588,97.5 z M 610,97.5 L 610,79 L 613,79 L 616,79 L 616,97.5 L 616,116 L 613,116 L 610,116 L 610,97.5 z M 593,64.746194 C 588.1044,63.110928 580.71399,55.406969 579.22232,50.38398 C 577.03674,43.024291 577.64716,34.054453 580.75,27.935504 C 584.80265,19.943498 590.03966,16.637858 599.3971,16.165329 C 611.19351,15.569638 618.77989,20.456092 622.52105,31.059656 C 625.72281,40.13443 623.56468,52.54246 617.68793,58.847318 C 612.39429,64.526588 600.70452,67.319715 593,64.746194 z M 610.10024,56.92862 C 614.81277,53.573005 616.45774,49.46603 616.48015,41 C 616.50303,32.355569 614.554,27.963856 609.04805,24.253398 C 602.49408,19.836679 592.0004,22.027213 587.8956,28.66893 C 583.26208,36.16611 584.57097,50.429967 590.39447,55.900857 C 595.19626,60.411905 604.52512,60.898456 610.10024,56.92862 z"
       id="path2456"
       style="fill:#e6e6e6;fill-opacity:1" />
    <path
       d="M 147.70728,565.38763 C 131.75234,560.4838 126.41428,535.77237 138.71968,523.78138 C 150.88732,511.92464 170.10249,515.96703 175.95723,531.61524 C 181.40598,546.17832 175.00905,561.54409 161.8736,565.4449 C 155.59162,567.31044 153.94159,567.30378 147.70728,565.38763 z M 163.01017,558.75 C 168.83624,554.78481 170.42655,551.68494 170.84053,543.48685 C 171.51568,530.11699 165.98497,523.01114 154.89788,523.00374 C 144.09346,522.99653 139.00421,529.11093 139.00155,542.10212 C 139.00028,548.35507 139.40354,550.30304 141.2738,553.07832 C 146.56618,560.93169 156.13576,563.42868 163.01017,558.75 z M 835.70728,562.38763 C 826.51359,559.56191 820,549.86478 820,539.00336 C 820,521.36379 833.78812,510.48126 850.32078,515.07212 C 866.06737,519.4447 871.29611,544.70389 859,557 C 856.45226,559.54774 853.30348,561.42633 849.8736,562.4449 C 843.59162,564.31044 841.94159,564.30378 835.70728,562.38763 z M 851.01017,555.75 C 856.83624,551.78481 858.42655,548.68494 858.84053,540.48685 C 859.51568,527.11699 853.98497,520.01114 842.89788,520.00374 C 832.09346,519.99653 827.00421,526.11093 827.00155,539.10212 C 827.00028,545.35507 827.40354,547.30304 829.2738,550.07832 C 834.56618,557.93169 844.13576,560.42868 851.01017,555.75 z M 142.47499,503.79541 C 142.19115,503.05574 142.08066,492.78667 142.22946,480.97527 L 142.5,459.5 L 145,459.5 L 147.5,459.5 L 147.5,482 L 147.5,504.5 L 145.24553,504.82014 C 144.00557,504.99621 142.75883,504.53509 142.47499,503.79541 z M 164,482 L 164,459 L 166.5,459 L 169,459 L 169,482 L 169,505 L 166.5,505 L 164,505 L 164,482 z M 831,478.5 L 831,456 L 833.5,456 L 836,456 L 836,478.5 L 836,501 L 833.5,501 L 831,501 L 831,478.5 z M 852,478.5 L 852,456 L 854.5,456 L 857,456 L 857,478.5 L 857,501 L 854.5,501 L 852,501 L 852,478.5 z M 137,422 L 137,398 L 140.25,398.02258 C 143.34953,398.04412 144.0556,398.88477 155.5,416.17931 L 167.5,434.31345 L 167.77256,416.15673 L 168.04512,398 L 171.52256,398 L 175,398 L 175,422 L 175,446 L 171.50796,446 C 168.08758,446 167.75922,445.61528 155.50796,427.25412 L 143,408.50824 L 143,427.25412 L 143,446 L 140,446 L 137,446 L 137,422 z M 825,419 L 825,395 L 828.25,395.02258 C 831.34953,395.04412 832.0556,395.88477 843.5,413.17931 L 855.5,431.31345 L 855.77256,413.15673 L 856.04512,395 L 859.52256,395 L 863,395 L 863,419 L 863,443 L 859.50796,443 C 856.08758,443 855.75922,442.61528 843.50796,424.25412 L 831,405.50824 L 831,424.25412 L 831,443 L 828,443 L 825,443 L 825,419 z M 193,409 L 193,404 L 188,404 C 183.66667,404 183,403.73333 183,402 C 183,400.26667 183.66667,400 188,400 L 193,400 L 193,395 C 193,390.66667 193.26667,390 195,390 C 196.73333,390 197,390.66667 197,395 L 197,400 L 202,400 C 206.33333,400 207,400.26667 207,402 C 207,403.73333 206.33333,404 202,404 L 197,404 L 197,409 C 197,413.33333 196.73333,414 195,414 C 193.26667,414 193,413.33333 193,409 z M 803.66667,410.33333 C 803.3,409.96667 803,407.74132 803,405.38812 L 803,401.10958 L 798.25899,400.80479 C 794.68669,400.57513 793.43607,400.06861 793.18567,398.75 C 792.90455,397.26963 793.63501,397 797.92668,397 L 803,397 L 803,392 C 803,387.33333 803.16667,387 805.5,387 C 807.83333,387 808,387.33333 808,392 L 808,397 L 813,397 C 817.33333,397 818,397.26667 818,399 C 818,400.73333 817.33333,401 813,401 L 808,401 L 808,406 C 808,410.18182 807.7,411 806.16667,411 C 805.15833,411 804.03333,410.7 803.66667,410.33333 z M 101.5,391.96298 C 92.15,386.52658 84.3682,381.45705 84.207111,380.69735 C 84.046023,379.93765 84.496023,378.83782 85.207111,378.25329 C 86.173226,377.45912 90.792017,379.67985 103.48148,387.03969 C 112.82129,392.45674 120.58986,397.26958 120.74496,397.73488 C 120.90006,398.20017 120.45839,399.31583 119.76348,400.21411 C 118.63367,401.67456 116.70154,400.80166 101.5,391.96298 z M 359.07735,380.96653 C 340.1449,370.01503 324.26765,360.66765 323.79457,360.19457 C 322.72763,359.12763 323.83194,356 325.27561,356 C 325.85951,356 341.61431,364.82311 360.28628,375.60691 C 389.21113,392.31216 394.55088,395.06587 396.36765,394.21413 C 397.54044,393.6643 420.325,380.60162 447,365.18596 L 495.5,337.15749 L 495.76161,298.07874 L 496.02321,259 L 498.5,259 L 500.97679,259 L 501.23839,298.17852 L 501.5,337.35705 L 551.41103,366.17852 C 578.86209,382.03034 601.65484,395 602.06158,395 C 602.46833,395 617.80837,386.28711 636.15056,375.63802 C 665.46063,358.62122 669.65304,356.4664 670.76348,357.84759 C 671.45839,358.71193 671.88808,359.83576 671.71834,360.34498 C 671.5486,360.8542 655.90647,370.23153 636.95806,381.18349 C 607.24927,398.35481 602.20234,400.95759 600.29773,400.08979 C 599.08296,399.53631 575.75954,386.18316 548.46789,370.41613 C 503.43072,344.39709 498.62211,341.85115 496.41534,342.85662 C 495.07807,343.46592 471.74179,356.79744 444.55693,372.48222 C 417.37207,388.167 394.76319,400.97263 394.31496,400.93917 C 393.86673,400.90572 378.00981,391.91802 359.07735,380.96653 z M 878.96915,396.94236 C 878.347,395.77985 877.98692,394.68608 878.16898,394.51176 C 878.35104,394.33745 885.925,389.8872 895,384.62233 C 909.84761,376.00848 911.62518,375.21671 912.75,376.71605 C 913.4375,377.63247 914,378.65651 914,378.99171 C 914,379.43692 887.5471,395.12973 880.80017,398.68703 C 880.41527,398.88997 879.59131,398.10487 878.96915,396.94236 z M 43.01027,385.6845 C 34.452661,382.95927 28.350977,372.57077 28.632022,361.2046 C 29.08515,342.8789 46.188032,332.03276 62,340.04362 C 70.065891,344.13006 74.006809,351.63446 73.990231,362.87573 C 73.979796,369.95199 71.120036,377.86991 67.373752,381.19501 C 61.613443,386.30771 51.068797,388.25079 43.01027,385.6845 z M 60,379.06646 C 70.92735,371.41577 70.206483,350.71712 58.810203,344.90317 C 51.128242,340.98413 41.166337,343.91009 37.401046,351.19136 C 35.180468,355.48548 34.497851,364.13485 35.96576,369.37771 C 38.905497,379.87742 51.557203,384.97761 60,379.06646 z M 213.0382,385.07138 C 212.1056,383.32881 214.08121,381.89155 233.51732,370.17275 C 254.60009,357.46112 255.05774,357.24435 256.4913,359.29104 C 257.29578,360.4396 257.85185,361.46579 257.727,361.57145 C 256.2585,362.81426 215.54439,387 214.92076,387 C 214.45304,387 213.60589,386.13212 213.0382,385.07138 z M 761.12762,372.9632 C 748.8228,365.91882 738.35862,359.75862 737.87387,359.27387 C 737.36539,358.76539 737.55039,357.62955 738.31116,356.58914 C 739.53631,354.91365 741.274,355.72452 762.81491,368.02344 C 775.56671,375.30416 786,381.82227 786,382.50811 C 786,386.64409 783.04181,385.50887 761.12762,372.9632 z M 938.51105,382.46001 C 929.54683,379.04244 923.99455,370.09012 924.00558,359.07186 C 924.0142,350.46133 925.6744,346.05213 930.86468,340.85539 C 938.42481,333.28583 949.15795,331.97233 958.5371,337.46888 C 963.97918,340.65814 966.35666,343.97918 968.51651,351.40879 C 971.05872,360.1537 969.3694,369.44797 963.99631,376.2779 C 959.05159,382.56333 946.66395,385.56827 938.51105,382.46001 z M 955.10212,375.74193 C 956.97095,374.49999 959.54526,371.46249 960.8228,368.99193 C 962.76097,365.2438 963.07381,363.39569 962.71211,357.83092 C 961.96145,346.28228 956.24952,340 946.5,340 C 940.36745,340 935.67985,342.67177 932.61986,347.9112 C 931.10333,350.50784 930.63158,353.13886 930.63158,359 C 930.63158,367.83954 932.47438,372.05527 937.95195,375.7466 C 942.56072,378.85245 950.42471,378.85031 955.10212,375.74193 z M 281,363.4057 C 276.44668,361.43343 272.34604,357.48621 269.67042,352.5 C 266.76192,347.07982 266.59535,333.23639 269.37562,328 C 271.94115,323.16805 274.88037,320.121 279,318.02252 C 292.11308,311.34292 307.55971,317.79789 311.58335,331.63873 C 314.70294,342.36974 311.98846,353.2909 304.58625,359.79013 C 298.72446,364.93685 288.24398,366.54342 281,363.4057 z M 298.5,357.10499 C 308.22628,351.75311 308.45604,330.68021 298.86424,323.69858 C 291.75212,318.52186 279.88412,321.47648 276.06011,329.37583 C 273.31663,335.04311 273.21025,346.05863 275.85144,350.98342 C 280.22674,359.14162 289.99868,361.78284 298.5,357.10499 z M 693.87963,362.20578 C 686.44997,358.32448 682.91174,352.49869 682.23437,343.03156 C 681.62328,334.49076 683.15695,328.47846 687.19693,323.57726 C 695.31363,313.7303 710.30093,312.62736 719.5937,321.19313 C 733.14863,333.68763 728.71161,358.87493 712.07772,363.85857 C 705.59845,365.7998 699.74105,365.26782 693.87963,362.20578 z M 713.5,356.94739 C 718.68511,353.82034 720.5,349.55602 720.5,340.5 C 720.5,328.03886 715.88614,322.01416 705.79147,321.29384 C 699.08828,320.81553 693.57373,323.76338 690.67606,329.37393 C 688.114,334.33465 687.85164,346.06606 690.20354,350.50236 C 694.75543,359.08842 705.17161,361.97008 713.5,356.94739 z M 10.180449,346.75 C 10.4708,344.7056 11.116796,344.47298 17.25,344.20431 C 23.893075,343.9133 24,343.94895 24,346.45431 C 24,348.94184 23.838472,349 16.930449,349 C 10.171048,349 9.8749172,348.90129 10.180449,346.75 z M 974,343.5 C 974,341.07143 974.2,341 981,341 C 987.8,341 988,341.07143 988,343.5 C 988,345.92857 987.8,346 981,346 C 974.2,346 974,345.92857 974,343.5 z M 487.49142,243.13502 C 479.8939,239.68354 474,229.79514 474,220.5 C 474,210.7677 480.4522,200.52033 488.52012,197.43917 C 495.30962,194.84623 504.79327,195.77296 510.17478,199.55523 C 520.8519,207.05939 523.29137,225.3954 515.11441,236.68336 C 509.53397,244.38693 496.79604,247.36202 487.49142,243.13502 z M 505.80245,237.29817 C 510.9711,233.43921 512.4435,230.3492 512.83822,222.5327 C 513.29424,213.50211 511.9117,209.00767 507.48114,205.11759 C 499.87047,198.43533 487.85075,200.83832 483.25,209.96189 C 477.63171,221.1033 482.50234,236.56089 492.5,239.31803 C 496.13696,240.32103 503.18757,239.25046 505.80245,237.29817 z M 696.02988,243.88741 C 687.18075,240.35575 682.02538,231.72991 682.00977,220.42931 C 681.99033,206.36178 689.88592,196.9841 702.42166,196.18589 C 710.27171,195.68603 715.09661,197.18905 720.07228,201.68427 C 724.8734,206.02179 727.49277,212.7033 727.44865,220.5 C 727.36324,235.59489 718.51217,245.01139 704.5,244.91465 C 701.2,244.89187 697.38845,244.42961 696.02988,243.88741 z M 711.59546,238.09612 C 718.03431,235.17191 720.5,230.2995 720.5,220.5 C 720.5,213.78539 720.11277,211.87706 718.08993,208.62296 C 711.66131,198.28137 695.39154,199.15251 690.45368,210.10271 C 688.08742,215.35014 687.96355,226.23533 690.22156,230.5 C 694.75976,239.07121 703.00004,241.99974 711.59546,238.09612 z M 732,205 C 732,203.19048 732.66667,203 739,203 C 745.33333,203 746,203.19048 746,205 C 746,206.80952 745.33333,207 739,207 C 732.66667,207 732,206.80952 732,205 z M 529.57421,200.33278 C 529.22233,199.41581 529.28669,198.32335 529.71722,197.90509 C 530.14775,197.48683 537.90254,192.8655 546.95009,187.63546 C 563.00394,178.35536 563.43468,178.17559 564.83302,180.17198 C 566.04858,181.90744 566.05614,182.35216 564.88293,183.10464 C 559.03164,186.85753 532.08393,202 531.25652,202 C 530.68312,202 529.92608,201.24975 529.57421,200.33278 z M 654.75,192.23585 C 645.5375,186.89997 638.00689,182.07654 638.01531,181.51712 C 638.02373,180.95771 638.43151,179.86677 638.92147,179.09282 C 639.63149,177.97128 643.2822,179.67285 656.90616,187.47538 C 666.30777,192.85974 674,197.56947 674,197.94143 C 674,198.3134 673.4375,199.36468 672.75,200.2776 C 671.62683,201.76904 669.80052,200.95311 654.75,192.23585 z M 583,160.43664 L 583,135.87328 L 586.25,136.18664 C 589.25101,136.47599 590.45766,137.91733 602,155 L 614.5,173.5 L 614.77207,154.75 L 615.04413,136 L 618.02207,136 L 621,136 L 621,160.56336 L 621,185.12672 L 617.75,184.81336 C 614.74899,184.52401 613.54234,183.08267 602,166 L 589.5,147.5 L 589.22793,166.25 L 588.95587,185 L 585.97793,185 L 583,185 L 583,160.43664 z M 639,147 L 639,142 L 634,142 C 629.66667,142 629,141.73333 629,140 C 629,138.26667 629.66667,138 634,138 L 639,138 L 639,133 C 639,128.66667 639.26667,128 641,128 C 642.73333,128 643,128.66667 643,133 L 643,138 L 648,138 C 652.33333,138 653,138.26667 653,140 C 653,141.73333 652.33333,142 648,142 L 643,142 L 643,147 C 643,151.33333 642.73333,152 641,152 C 639.26667,152 639,151.33333 639,147 z M 589,97.5 L 589,79 L 591.5,79 L 594,79 L 594,97.5 L 594,116 L 591.5,116 L 589,116 L 589,97.5 z M 610,97.5 L 610,79 L 612.5,79 L 615,79 L 615,97.5 L 615,116 L 612.5,116 L 610,116 L 610,97.5 z M 593.70728,64.387633 C 577.75234,59.483805 572.41428,34.772366 584.71968,22.781382 C 596.88732,10.924637 616.10249,14.967028 621.95723,30.615236 C 627.40598,45.178318 621.00905,60.544085 607.8736,64.444895 C 601.59162,66.310445 599.94159,66.303775 593.70728,64.387633 z M 609.01017,57.75 C 614.83624,53.784811 616.42655,50.684945 616.84053,42.486853 C 617.51568,29.116989 611.98497,22.011136 600.89788,22.003738 C 590.09346,21.996529 585.00421,28.110929 585.00155,41.102117 C 585.00028,47.355067 585.40354,49.303041 587.2738,52.07832 C 592.56618,59.931692 602.13576,62.428684 609.01017,57.75 z"
       id="path2454"
       style="fill:#8c8c8c;fill-opacity:1" />
    <path
       d="M 146,564.4057 C 135.9332,560.04527 130.66692,548.72778 132.93604,536.33059 C 135.11377,524.43271 143.22135,517.58824 155.13718,517.58824 C 168.72726,517.58824 177.02135,526.80706 176.97804,541.86419 C 176.94466,553.46909 172.70883,560.71805 163.78212,564.44695 C 159.09785,566.40368 150.56701,566.38389 146,564.4057 z M 163.17116,559.37227 C 172.24809,554.81168 174.58804,536.60603 167.22238,527.85244 C 159.98056,519.24602 145.74879,520.68134 140.57745,530.53967 C 137.68842,536.04715 137.64683,548.05154 140.5,552.89547 C 145.25853,560.9742 154.64547,563.6559 163.17116,559.37227 z M 834,561.4057 C 823.9332,557.04527 818.66692,545.72778 820.93604,533.33059 C 823.11377,521.43271 831.22135,514.58824 843.13718,514.58824 C 856.72726,514.58824 865.02135,523.80706 864.97804,538.86419 C 864.94466,550.46909 860.70883,557.71805 851.78212,561.44695 C 847.09785,563.40368 838.56701,563.38389 834,561.4057 z M 851.17116,556.37227 C 860.24809,551.81168 862.58804,533.60603 855.22238,524.85244 C 847.98056,516.24602 833.74879,517.68134 828.57745,527.53967 C 825.68842,533.04715 825.64683,545.05154 828.5,549.89547 C 833.25853,557.9742 842.64547,560.6559 851.17116,556.37227 z M 143,482 C 143,460.66667 143.06061,460 145,460 C 146.93939,460 147,460.66667 147,482 C 147,503.33333 146.93939,504 145,504 C 143.06061,504 143,503.33333 143,482 z M 164,482 L 164,460 L 166.5,460 L 169,460 L 169,482 L 169,504 L 166.5,504 L 164,504 L 164,482 z M 831,478.5 C 831,456.66667 831.05926,456 833,456 C 834.94074,456 835,456.66667 835,478.5 C 835,500.33333 834.94074,501 833,501 C 831.05926,501 831,500.33333 831,478.5 z M 852,478.5 L 852,456 L 854.5,456 L 857,456 L 857,478.5 L 857,501 L 854.5,501 L 852,501 L 852,478.5 z M 137,422 L 137,398 L 139.99712,398 C 142.77799,398 143.91441,399.38092 155.74712,417.13872 L 168.5,436.27745 L 168.77159,417.13872 L 169.04319,398 L 171.52159,398 L 174,398 L 174,422 L 174,446 L 171.25,445.97346 C 168.80179,445.94983 167.12824,443.8922 156,427.22346 L 143.5,408.5 L 143.22793,427.25 L 142.95587,446 L 139.97793,446 L 137,446 L 137,422 z M 825,419 L 825,395 L 827.99712,395 C 830.77799,395 831.91441,396.38092 843.74712,414.13872 L 856.5,433.27745 L 856.77159,414.13872 L 857.04319,395 L 859.52159,395 L 862,395 L 862,419 L 862,443 L 859.25,442.97346 C 856.80179,442.94983 855.12824,440.8922 844,424.22346 L 831.5,405.5 L 831.22793,424.25 L 830.95587,443 L 827.97793,443 L 825,443 L 825,419 z M 193,408 L 193,403 L 188,403 C 184.22222,403 183,402.63333 183,401.5 C 183,400.36667 184.22222,400 188,400 L 193,400 L 193,395 C 193,390.66667 193.26667,390 195,390 C 196.73333,390 197,390.66667 197,395 L 197,400 L 202,400 C 205.77778,400 207,400.36667 207,401.5 C 207,402.63333 205.77778,403 202,403 L 197,403 L 197,408 C 197,412.33333 196.73333,413 195,413 C 193.26667,413 193,412.33333 193,408 z M 803.80479,405.25 L 803.5,400.5 L 798.75,400.19521 C 795.41508,399.98122 794,399.45987 794,398.44521 C 794,397.37762 795.30647,397 799,397 L 804,397 L 804,392 C 804,388.22222 804.36667,387 805.5,387 C 806.63333,387 807,388.22222 807,392 L 807,397 L 812,397 C 815.69353,397 817,397.37762 817,398.44521 C 817,399.45987 815.58492,399.98122 812.25,400.19521 L 807.5,400.5 L 807.19521,405.25 C 806.98711,408.49303 806.4493,410 805.5,410 C 804.5507,410 804.01289,408.49303 803.80479,405.25 z M 101.5,391.48277 C 92.7,386.31828 85.136747,381.95083 84.692771,381.77732 C 83.644323,381.36758 84.929989,378 86.134868,378 C 86.641357,378 94.648585,382.3875 103.92871,387.75 C 118.44155,396.13622 120.67073,397.74478 119.86564,399.25 C 119.35084,400.2125 118.60797,400.97137 118.21482,400.93637 C 117.82167,400.90138 110.3,396.64725 101.5,391.48277 z M 550.29517,371.16709 C 513.51347,349.85648 498.97514,340.93665 498.68135,339.5 C 498.27236,337.5 498.27236,337.5 498.09463,339.5 C 497.95865,341.03019 486.05991,348.31226 447.44129,370.5 C 419.67971,386.45 396.5234,399.65 395.98284,399.83333 C 395.44228,400.01667 395.00634,399.11667 395.01409,397.83333 C 395.02631,395.8083 401.6187,391.70133 444.9082,366.75 C 472.34221,350.9375 495.17337,338.00016 495.64411,338.00036 C 496.11485,338.00055 496.37735,320.22555 496.22744,298.50036 C 495.95785,259.42997 495.9769,259 497.97744,259 C 499.97338,259 500,259.51981 500,298.5 C 500,322.27271 500.37144,338 500.9329,338 C 501.446,338 524.40847,351.01744 551.96061,366.92765 L 602.05542,395.8553 L 635.70381,376.38947 C 665.75542,359.0044 669.51408,357.08551 670.86658,358.43801 C 671.69949,359.27091 672.18274,360.14512 671.94048,360.38069 C 671.29677,361.00662 601.99946,401.01514 601.72884,400.91709 C 601.60298,400.87149 578.45783,387.48399 550.29517,371.16709 z M 358,379.88294 C 338.7259,368.7133 323.64186,359.36234 323.82143,358.69483 C 323.99821,358.03767 324.46726,357.16595 324.86376,356.75767 C 325.26025,356.34939 340.97811,364.89378 359.79233,375.74521 C 388.84239,392.50034 394,395.8162 394,397.73754 C 394,398.98189 393.6625,399.97215 393.25,399.93812 C 392.8375,399.90408 376.975,390.87925 358,379.88294 z M 879.18023,396.91699 C 877.8167,394.73363 876.93782,395.38746 895.82692,384.53286 C 909.62181,376.60564 911.30763,375.87906 912.69245,377.26388 C 914.53465,379.10608 915.5624,378.35634 894.88545,390.25407 C 881.68076,397.85219 880.16569,398.49495 879.18023,396.91699 z M 44.557521,385.807 C 42.157972,385.13949 38.811457,382.90669 36.006536,380.10177 C 30.377689,374.47293 28.502943,368.78105 29.242635,359.56605 C 30.261747,346.87006 37.763002,338.92825 49.437756,338.18486 C 64.838338,337.20423 75.057511,348.23687 73.756891,364.43986 C 72.995597,373.92397 69.041719,380.3786 61.681608,384.15253 C 56.972694,386.56705 49.785848,387.26142 44.557521,385.807 z M 60.958162,379.02979 C 70.750305,372.05717 70.241805,351.99643 60.102117,345.25807 C 55.782197,342.38726 47.955186,342.20284 43.009323,344.85534 C 33.352965,350.0341 31.927739,370.29699 40.664153,378.19735 C 45.588183,382.65016 55.313583,383.04909 60.958162,379.02979 z M 213.34196,385.17596 C 212.31723,383.5351 214.35993,382.06075 233.68109,370.49586 C 250.88785,360.19657 255.33934,357.92422 256.06437,359.0699 C 256.56212,359.85646 256.97627,360.74631 256.98469,361.04737 C 256.99783,361.51717 215.5407,387 214.76325,387 C 214.60806,387 213.96848,386.17918 213.34196,385.17596 z M 761,372.47175 C 749.175,365.64227 739.05894,359.89522 738.51986,359.70054 C 737.87968,359.46935 737.87968,358.60914 738.51986,357.22044 C 739.45653,355.1886 740.49795,355.66754 762,368.01859 C 774.375,375.12695 784.86325,381.07682 785.30723,381.24052 C 786.48716,381.67557 784.98905,385.00986 783.64301,384.9445 C 783.01436,384.91397 772.825,379.30124 761,372.47175 z M 935.90728,380.67323 C 927.06604,376.0056 922.42584,364.56189 924.7877,353.25 C 927.23693,341.51965 935.06387,335 946.69712,335 C 960.42691,335 969,344.22546 969,359 C 969,369.21657 964.70099,377.07125 956.94311,381.02902 C 951.33805,383.88851 941.6884,383.7253 935.90728,380.67323 z M 954.03811,376.75 C 960.12874,373.67867 963,367.99183 963,359 C 963,346.67976 956.96515,339.57143 946.50546,339.57143 C 937.39475,339.57143 931.47757,345.17207 930.32732,354.88412 C 929.35697,363.07718 930.6951,368.65675 934.69115,373.0799 C 940.20613,379.18432 946.74927,380.42555 954.03811,376.75 z M 284.12325,364.0455 C 278.57309,362.65704 272.86452,357.94533 270.13506,352.5 C 267.23731,346.71892 266.68375,337.03895 268.88637,330.66423 C 275.25418,312.23477 301.92521,310.83435 310.10414,328.5 C 311.38201,331.26007 311.96288,334.84678 311.97804,340.07069 C 312.00712,350.09427 308.65594,357.19124 302,361.20168 C 297.03957,364.19052 289.49837,365.39017 284.12325,364.0455 z M 295.6849,358.93638 C 308.60696,354.05409 310.611,330.22113 298.70966,322.96451 C 294.33208,320.29536 285.64342,320.31033 281.24086,322.9946 C 274.65007,327.01305 271.59997,336.99556 273.95872,346.82793 C 276.33672,356.74053 286.50207,362.4059 295.6849,358.93638 z M 697.55782,363.50788 C 686.77186,359.66555 681.17722,350.1844 682.30258,337.65505 C 683.07981,329.00164 686.45928,323.1926 693.04878,319.18317 C 698.10404,316.10726 699.02204,315.89053 705.68698,316.19942 C 714.95139,316.62878 720.17437,319.93693 724.32776,328.00619 C 726.88945,332.98306 727.11771,334.25276 726.75362,341.5 C 726.51957,346.1588 725.68193,350.77834 724.74802,352.56079 C 722.10469,357.60582 716.89044,361.95506 711.60275,363.52533 C 705.52646,365.32979 702.66222,365.32624 697.55782,363.50788 z M 713.72968,357.3525 C 718.97433,353.4368 720.44211,350.3768 720.83822,342.5327 C 721.29218,333.54292 720.02523,329.38603 715.49229,324.99252 C 712.53075,322.12209 711.16486,321.56721 706.17146,321.20602 C 694.42898,320.35665 688,327.35682 688,340.99194 C 688,352.67719 695.38813,360.4485 705.79147,359.70616 C 709.00769,359.47666 712.12096,358.55358 713.72968,357.3525 z M 11,347 C 11,345.20513 11.666667,345 17.5,345 C 23.333333,345 24,345.20513 24,347 C 24,348.79487 23.333333,349 17.5,349 C 11.666667,349 11,348.79487 11,347 z M 974,343.5 C 974,342.32051 975.38889,342 980.5,342 C 985.61111,342 987,342.32051 987,343.5 C 987,344.67949 985.61111,345 980.5,345 C 975.38889,345 974,344.67949 974,343.5 z M 487.5,242.63197 C 484.75,241.34029 481.73724,239.4241 480.80499,238.37375 C 474.68541,231.47903 473.11063,217.59967 477.40216,208.38297 C 485.95297,190.01883 512.80012,192.65018 518.52422,212.41344 C 524.71319,233.78176 506.47624,251.54509 487.5,242.63197 z M 506.69211,237.21924 C 511.39647,233.86944 513.50532,228.66597 513.46805,220.5 C 513.41258,208.34839 508.49589,202.03738 498.43442,201.203 C 491.57116,200.63385 485.68747,203.74106 482.73844,209.49215 C 480.15209,214.53595 479.88537,225.98949 482.24922,230.5 C 483.93038,233.70785 488.53578,238.3653 491,239.34968 C 494.30309,240.66917 503.62437,239.40366 506.69211,237.21924 z M 696.63726,243.59611 C 691.86814,241.82075 687.49188,237.76111 684.67573,232.5 C 681.61566,226.78321 681.63272,214.19888 684.70839,208.40532 C 693.34245,192.1416 715.84517,191.91994 724.2887,208.01544 C 726.89258,212.97908 727.13423,214.26743 726.83292,221.57998 C 726.54749,228.50728 726.06618,230.36184 723.45903,234.57998 C 721.54699,237.67349 718.83946,240.37195 716.16585,241.84874 C 710.83616,244.79264 701.98012,245.58506 696.63726,243.59611 z M 713.01017,237.75 C 719.4143,233.39139 720.5,230.89088 720.5,220.5 C 720.5,210.07936 719.43061,207.63708 712.90805,203.1615 C 710.06304,201.20934 708.54782,200.88963 703.73656,201.22628 C 694.05206,201.90393 689.14293,207.35032 688.25587,218.40119 C 687.17374,231.88225 693.40847,239.8614 705.10212,239.96086 C 708.27708,239.98786 710.72943,239.30226 713.01017,237.75 z M 732,205 C 732,203.20513 732.66667,203 738.5,203 C 744.33333,203 745,203.20513 745,205 C 745,206.79487 744.33333,207 738.5,207 C 732.66667,207 732,206.79487 732,205 z M 530.10956,200.20472 C 529.23227,198.56549 531.05593,197.23614 546.02997,188.59951 C 561.96834,179.40669 565,178.26284 565,181.44212 C 565,182.41519 542.65136,196.04645 531.80017,201.69192 C 531.41527,201.89217 530.65449,201.22293 530.10956,200.20472 z M 655.5,192.22346 C 647.25,187.42179 639.93628,183.12989 639.2473,182.68589 C 638.35151,182.10863 638.28078,181.34388 638.99904,180.00179 C 639.92288,178.27559 641.34761,178.89692 656.75175,187.7439 C 665.96329,193.03432 673.67663,197.49533 673.8925,197.65726 C 674.40783,198.0438 671.9399,201.00681 671.12756,200.97688 C 670.7824,200.96416 663.75,197.02512 655.5,192.22346 z M 583,160.5 L 583,137 L 586.25,137.03694 C 589.3398,137.07207 590.11616,137.98831 602,155.62458 L 614.5,174.17527 L 614.77207,155.58764 L 615.04413,137 L 618.02207,137 L 621,137 L 621,160.5 L 621,184 L 617.64846,184 C 614.40925,184 613.88137,183.37474 601.89846,165.3448 L 589.5,146.68959 L 589.22793,165.3448 L 588.95587,184 L 585.97793,184 L 583,184 L 583,160.5 z M 639,147 L 639,142 L 634,142 C 630.22222,142 629,141.63333 629,140.5 C 629,139.36667 630.22222,139 634,139 L 639,139 L 639,134 C 639,129.66667 639.26667,129 641,129 C 642.73333,129 643,129.66667 643,134 L 643,139 L 648,139 C 651.77778,139 653,139.36667 653,140.5 C 653,141.63333 651.77778,142 648,142 L 643,142 L 643,147 C 643,151.33333 642.73333,152 641,152 C 639.26667,152 639,151.33333 639,147 z M 589,97.5 C 589,79.666667 589.07207,79 591,79 C 592.92793,79 593,79.666667 593,97.5 C 593,115.33333 592.92793,116 591,116 C 589.07207,116 589,115.33333 589,97.5 z M 611,97.5 C 611,79.666667 611.07207,79 613,79 C 614.92793,79 615,79.666667 615,97.5 C 615,115.33333 614.92793,116 613,116 C 611.07207,116 611,115.33333 611,97.5 z M 592,63.405695 C 581.9332,59.045274 576.66692,47.727777 578.93604,35.330593 C 581.11377,23.432709 589.22135,16.588235 601.13718,16.588235 C 614.72726,16.588235 623.02135,25.807056 622.97804,40.864192 C 622.94466,52.469085 618.70883,59.718052 609.78212,63.446952 C 605.09785,65.403682 596.56701,65.38389 592,63.405695 z M 609.17116,58.37227 C 618.24809,53.81168 620.58804,35.606031 613.22238,26.85244 C 605.98056,18.246023 591.74879,19.681345 586.57745,29.539671 C 583.68842,35.047153 583.64683,47.051541 586.5,51.89547 C 591.25853,59.974199 600.64547,62.655901 609.17116,58.37227 z"
       id="path2452"
       style="fill:#333333;fill-opacity:1" />
  </g>
</svg>
