<?xml version="1.0" encoding="utf-8"?>
<!-- Generator: Adobe Illustrator 13.0.2, SVG Export Plug-In . SVG Version: 6.00 Build 14948)  -->
<!DOCTYPE svg PUBLIC "-//W3C//DTD SVG 1.1//EN" "http://www.w3.org/Graphics/SVG/1.1/DTD/svg11.dtd">
<svg version="1.1" id="Ebene_1" xmlns="http://www.w3.org/2000/svg" xmlns:xlink="http://www.w3.org/1999/xlink" x="0px" y="0px"
	 width="311.87px" height="265.771px" viewBox="0 0 311.87 265.771" enable-background="new 0 0 311.87 265.771"
	 xml:space="preserve">
<path d="M73.704,133.108c0-2.852,0.766-5.084,2.297-6.697s3.508-2.42,5.93-2.42c1.586,0,3.016,0.379,4.289,1.137
	s2.244,1.814,2.912,3.17s1.002,2.893,1.002,4.611c0,1.742-0.352,3.301-1.055,4.676s-1.699,2.416-2.988,3.123
	s-2.68,1.061-4.172,1.061c-1.617,0-3.063-0.391-4.336-1.172s-2.238-1.848-2.895-3.199S73.704,134.616,73.704,133.108z
	 M76.047,133.144c0,2.07,0.557,3.701,1.67,4.893s2.51,1.787,4.189,1.787c1.711,0,3.119-0.602,4.225-1.805s1.658-2.91,1.658-5.121
	c0-1.398-0.236-2.619-0.709-3.662s-1.164-1.852-2.074-2.426s-1.932-0.861-3.064-0.861c-1.609,0-2.994,0.553-4.154,1.658
	S76.047,130.558,76.047,133.144z"/>
<polygon points="116.442,111.182 116.442,113.182 91.392,127.632 90.542,126.132 "/>
<polygon points="149.992,130.532 150.841,132.032 149.992,132.532 116.442,113.182 116.442,111.182 "/>
<polygon points="185.192,111.182 185.192,113.182 151.692,132.532 150.841,132.032 151.692,130.532 "/>
<path d="M211.149,133.108c0-2.852,0.766-5.084,2.297-6.697s3.508-2.42,5.93-2.42c1.586,0,3.016,0.379,4.289,1.137
	s2.244,1.814,2.912,3.17s1.002,2.893,1.002,4.611c0,1.742-0.352,3.301-1.055,4.676s-1.699,2.416-2.988,3.123
	s-2.68,1.061-4.172,1.061c-1.617,0-3.063-0.391-4.336-1.172s-2.238-1.848-2.895-3.199S211.149,134.616,211.149,133.108z
	 M213.493,133.144c0,2.07,0.557,3.701,1.67,4.893s2.51,1.787,4.189,1.787c1.711,0,3.119-0.602,4.225-1.805s1.658-2.91,1.658-5.121
	c0-1.398-0.236-2.619-0.709-3.662s-1.164-1.852-2.074-2.426s-1.932-0.861-3.064-0.861c-1.609,0-2.994,0.553-4.154,1.658
	S213.493,130.558,213.493,133.144z"/>
<polygon points="210.842,125.982 209.992,127.482 185.192,113.182 185.192,111.182 "/>
<path d="M247.323,121.635v-17.18h2.332l9.023,13.488v-13.488h2.18v17.18h-2.332l-9.023-13.5v13.5H247.323z"/>
<path d="M267.335,110.552v-3.533h-3.507v-1.477h3.507v-3.507h1.494v3.507h3.507v1.477h-3.507v3.533H267.335z"/>
<polygon points="243.392,117.282 244.242,118.732 228.892,127.632 228.042,126.132 "/>
<path d="M279.852,133.062c0-2.852,0.766-5.084,2.297-6.697s3.508-2.42,5.93-2.42c1.586,0,3.016,0.379,4.289,1.137
	s2.244,1.814,2.912,3.17s1.002,2.893,1.002,4.611c0,1.742-0.352,3.301-1.055,4.676s-1.699,2.416-2.988,3.123
	s-2.68,1.061-4.172,1.061c-1.617,0-3.063-0.391-4.336-1.172s-2.238-1.848-2.895-3.199S279.852,134.569,279.852,133.062z
	 M282.196,133.097c0,2.07,0.557,3.701,1.67,4.893s2.51,1.787,4.189,1.787c1.711,0,3.119-0.602,4.225-1.805s1.658-2.91,1.658-5.121
	c0-1.398-0.236-2.619-0.709-3.662s-1.164-1.852-2.074-2.426s-1.932-0.861-3.064-0.861c-1.609,0-2.994,0.553-4.154,1.658
	S282.196,130.511,282.196,133.097z"/>
<path d="M306.87,126.813h-8.508v-1.477h8.508V126.813z"/>
<polygon points="279.542,125.982 278.692,127.432 263.992,118.982 264.842,117.482 "/>
<path d="M245.5,73.619c0-2.852,0.766-5.084,2.297-6.697s3.508-2.42,5.93-2.42c1.586,0,3.016,0.379,4.289,1.137
	s2.244,1.814,2.912,3.17s1.002,2.893,1.002,4.611c0,1.742-0.352,3.301-1.055,4.676s-1.699,2.416-2.988,3.123
	s-2.68,1.061-4.172,1.061c-1.617,0-3.063-0.391-4.336-1.172s-2.238-1.848-2.895-3.199S245.5,75.127,245.5,73.619z M247.844,73.654
	c0,2.07,0.557,3.701,1.67,4.893s2.51,1.787,4.189,1.787c1.711,0,3.119-0.602,4.225-1.805s1.658-2.91,1.658-5.121
	c0-1.398-0.236-2.619-0.709-3.662s-1.164-1.852-2.074-2.426s-1.932-0.861-3.064-0.861c-1.609,0-2.994,0.553-4.154,1.658
	S247.844,71.068,247.844,73.654z"/>
<rect x="250.092" y="84.532" width="1.699" height="17.65"/>
<rect x="256.042" y="84.532" width="1.7" height="17.65"/>
<path d="M41.12,121.635v-17.18h2.332l9.023,13.488v-13.488h2.18v17.18h-2.332l-9.023-13.5v13.5H41.12z"/>
<path d="M61.132,110.552v-3.533h-3.507v-1.477h3.507v-3.507h1.494v3.507h3.507v1.477h-3.507v3.533H61.132z"/>
<polygon points="57.792,118.982 58.642,117.482 73.341,125.982 72.492,127.482 "/>
<path d="M5,133.108c0-2.852,0.766-5.084,2.297-6.697s3.508-2.42,5.93-2.42c1.586,0,3.016,0.379,4.289,1.137s2.244,1.814,2.912,3.17
	s1.002,2.893,1.002,4.611c0,1.742-0.352,3.301-1.055,4.676s-1.699,2.416-2.988,3.123s-2.68,1.061-4.172,1.061
	c-1.617,0-3.063-0.391-4.336-1.172s-2.238-1.848-2.895-3.199S5,134.616,5,133.108z M7.344,133.144c0,2.07,0.557,3.701,1.67,4.893
	s2.51,1.787,4.189,1.787c1.711,0,3.119-0.602,4.225-1.805s1.658-2.91,1.658-5.121c0-1.398-0.236-2.619-0.709-3.662
	s-1.164-1.852-2.074-2.426s-1.932-0.861-3.064-0.861c-1.609,0-2.994,0.553-4.154,1.658S7.344,130.558,7.344,133.144z"/>
<polygon points="24.242,130.182 23.392,128.732 38.692,119.882 39.542,121.332 "/>
<polygon points="21.242,125.032 20.392,123.582 35.742,114.732 36.591,116.182 "/>
<path d="M39.352,73.619c0-2.852,0.766-5.084,2.297-6.697s3.508-2.42,5.93-2.42c1.586,0,3.016,0.379,4.289,1.137
	s2.244,1.814,2.912,3.17s1.002,2.893,1.002,4.611c0,1.742-0.352,3.301-1.055,4.676s-1.699,2.416-2.988,3.123
	s-2.68,1.061-4.172,1.061c-1.617,0-3.063-0.391-4.336-1.172s-2.238-1.848-2.895-3.199S39.352,75.127,39.352,73.619z M41.696,73.654
	c0,2.07,0.557,3.701,1.67,4.893s2.51,1.787,4.189,1.787c1.711,0,3.119-0.602,4.225-1.805s1.658-2.91,1.658-5.121
	c0-1.398-0.236-2.619-0.709-3.662s-1.164-1.852-2.074-2.426s-1.932-0.861-3.064-0.861c-1.609,0-2.994,0.553-4.154,1.658
	S41.696,71.068,41.696,73.654z"/>
<path d="M66.37,67.37h-8.508v-1.477h8.508V67.37z"/>
<rect x="46.892" y="84.582" width="1.699" height="17.6"/>
<polygon points="149.992,91.832 151.692,92.832 151.692,130.532 150.841,132.032 149.992,130.532 "/>
<polygon points="151.692,172.183 149.992,171.232 149.992,132.532 150.841,132.032 151.692,132.532 "/>
<path d="M176.75,73.619c0-2.852,0.766-5.084,2.297-6.697s3.508-2.42,5.93-2.42c1.586,0,3.016,0.379,4.289,1.137
	s2.244,1.814,2.912,3.17s1.002,2.893,1.002,4.611c0,1.742-0.352,3.301-1.055,4.676s-1.699,2.416-2.988,3.123
	s-2.68,1.061-4.172,1.061c-1.617,0-3.063-0.391-4.336-1.172s-2.238-1.848-2.895-3.199S176.75,75.127,176.75,73.619z M179.094,73.654
	c0,2.07,0.557,3.701,1.67,4.893s2.51,1.787,4.189,1.787c1.711,0,3.119-0.602,4.225-1.805s1.658-2.91,1.658-5.121
	c0-1.398-0.236-2.619-0.709-3.662s-1.164-1.852-2.074-2.426s-1.932-0.861-3.064-0.861c-1.609,0-2.994,0.553-4.154,1.658
	S179.094,71.068,179.094,73.654z"/>
<polygon points="174.892,77.482 175.742,78.932 151.692,92.832 149.992,91.832 "/>
<path d="M178.573,42.327v-17.18h2.332l9.023,13.488V25.147h2.18v17.18h-2.332l-9.023-13.5v13.5H178.573z"/>
<path d="M198.585,38.244v-3.533h-3.507v-1.477h3.507v-3.507h1.494v3.507h3.507v1.477h-3.507v3.533H198.585z"/>
<rect x="184.292" y="44.582" width="1.7" height="17.6"/>
<path d="M142.399,14.119c0-2.852,0.766-5.084,2.297-6.697s3.508-2.42,5.93-2.42c1.586,0,3.016,0.379,4.289,1.137
	s2.244,1.814,2.912,3.17s1.002,2.893,1.002,4.611c0,1.742-0.352,3.301-1.055,4.676s-1.699,2.416-2.988,3.123
	s-2.68,1.061-4.172,1.061c-1.617,0-3.063-0.391-4.336-1.172s-2.238-1.848-2.895-3.199S142.399,15.627,142.399,14.119z
	 M144.743,14.154c0,2.07,0.557,3.701,1.67,4.893s2.51,1.787,4.189,1.787c1.711,0,3.119-0.602,4.225-1.805s1.658-2.91,1.658-5.121
	c0-1.398-0.236-2.619-0.709-3.662s-1.164-1.852-2.074-2.426s-1.932-0.861-3.064-0.861c-1.609,0-2.994,0.553-4.154,1.658
	S144.743,11.568,144.743,14.154z"/>
<polygon points="158.591,21.932 159.442,20.432 173.992,28.882 173.142,30.332 "/>
<polygon points="161.542,16.782 162.392,15.282 176.942,23.732 176.091,25.182 "/>
<path d="M211.102,14.119c0-2.852,0.766-5.084,2.297-6.697s3.508-2.42,5.93-2.42c1.586,0,3.016,0.379,4.289,1.137
	s2.244,1.814,2.912,3.17s1.002,2.893,1.002,4.611c0,1.742-0.352,3.301-1.055,4.676s-1.699,2.416-2.988,3.123
	s-2.68,1.061-4.172,1.061c-1.617,0-3.063-0.391-4.336-1.172s-2.238-1.848-2.895-3.199S211.102,15.627,211.102,14.119z
	 M213.446,14.154c0,2.07,0.557,3.701,1.67,4.893s2.51,1.787,4.189,1.787c1.711,0,3.119-0.602,4.225-1.805s1.658-2.91,1.658-5.121
	c0-1.398-0.236-2.619-0.709-3.662s-1.164-1.852-2.074-2.426s-1.932-0.861-3.064-0.861c-1.609,0-2.994,0.553-4.154,1.658
	S213.446,11.568,213.446,14.154z"/>
<path d="M238.12,7.87h-8.508V6.394h8.508V7.87z"/>
<polygon points="209.192,17.982 210.042,19.482 196.042,27.532 195.192,26.082 "/>
<path d="M108.102,192.611c0-2.852,0.766-5.084,2.297-6.697s3.508-2.42,5.93-2.42c1.586,0,3.016,0.379,4.289,1.137
	s2.244,1.814,2.912,3.17s1.002,2.893,1.002,4.611c0,1.742-0.352,3.301-1.055,4.676s-1.699,2.416-2.988,3.123
	s-2.68,1.061-4.172,1.061c-1.617,0-3.063-0.391-4.336-1.172s-2.238-1.848-2.895-3.199S108.102,194.119,108.102,192.611z
	 M110.446,192.646c0,2.07,0.557,3.701,1.67,4.893s2.51,1.787,4.189,1.787c1.711,0,3.119-0.602,4.225-1.805s1.658-2.91,1.658-5.121
	c0-1.398-0.236-2.619-0.709-3.662s-1.164-1.852-2.074-2.426s-1.932-0.861-3.064-0.861c-1.609,0-2.994,0.553-4.154,1.658
	S110.446,190.061,110.446,192.646z"/>
<polygon points="125.792,187.132 124.942,185.632 149.992,171.232 151.692,172.183 "/>
<path d="M109.87,240.679v-17.18h2.332l9.023,13.488v-13.488h2.18v17.18h-2.332l-9.023-13.5v13.5H109.87z"/>
<path d="M129.882,229.596v-3.533h-3.507v-1.477h3.507v-3.507h1.494v3.507h3.507v1.477h-3.507v3.533H129.882z"/>
<rect x="115.642" y="203.532" width="1.699" height="17.65"/>
<path d="M73.75,252.108c0-2.852,0.766-5.084,2.297-6.697s3.508-2.42,5.93-2.42c1.586,0,3.016,0.379,4.289,1.137
	s2.244,1.814,2.912,3.17s1.002,2.893,1.002,4.611c0,1.742-0.352,3.301-1.055,4.676s-1.699,2.416-2.988,3.123
	s-2.68,1.061-4.172,1.061c-1.617,0-3.063-0.391-4.336-1.172s-2.238-1.848-2.895-3.199S73.75,253.616,73.75,252.108z M76.094,252.144
	c0,2.07,0.557,3.701,1.67,4.893s2.51,1.787,4.189,1.787c1.711,0,3.119-0.602,4.225-1.805s1.658-2.91,1.658-5.121
	c0-1.398-0.236-2.619-0.709-3.662s-1.164-1.852-2.074-2.426s-1.932-0.861-3.064-0.861c-1.609,0-2.994,0.553-4.154,1.658
	S76.094,249.558,76.094,252.144z"/>
<polygon points="92.942,249.232 92.091,247.732 107.442,238.882 108.292,240.382 "/>
<polygon points="89.992,244.082 89.142,242.582 104.442,233.732 105.292,235.232 "/>
<path d="M142.399,252.108c0-2.852,0.766-5.084,2.297-6.697s3.508-2.42,5.93-2.42c1.586,0,3.016,0.379,4.289,1.137
	s2.244,1.814,2.912,3.17s1.002,2.893,1.002,4.611c0,1.742-0.352,3.301-1.055,4.676s-1.699,2.416-2.988,3.123
	s-2.68,1.061-4.172,1.061c-1.617,0-3.063-0.391-4.336-1.172s-2.238-1.848-2.895-3.199S142.399,253.616,142.399,252.108z
	 M144.743,252.144c0,2.07,0.557,3.701,1.67,4.893s2.51,1.787,4.189,1.787c1.711,0,3.119-0.602,4.225-1.805s1.658-2.91,1.658-5.121
	c0-1.398-0.236-2.619-0.709-3.662s-1.164-1.852-2.074-2.426s-1.932-0.861-3.064-0.861c-1.609,0-2.994,0.553-4.154,1.658
	S144.743,249.558,144.743,252.144z"/>
<path d="M169.417,245.859h-8.508v-1.477h8.508V245.859z"/>
<polygon points="142.091,245.032 141.242,246.482 126.542,237.982 127.392,236.532 "/>
</svg>
